HIERARCHY
ROOT Hips
{
	OFFSET 0.000000 0.000000 0.000000
	CHANNELS 6 Xposition Yposition Zposition Xrotation Yrotation Zrotation
	JOINT LeftUpLeg_virtual
	{
		OFFSET 0.000000 0.000000 0.000000
		CHANNELS 3 Xrotation Yrotation Zrotation
		JOINT LeftUpLeg
		{
			OFFSET 10.205400 -3.823500 0.155100
			CHANNELS 3 Xrotation Yrotation Zrotation
			JOINT LeftLeg
			{
				OFFSET 0.708757 -12.982077 0.567790
				CHANNELS 3 Xrotation Yrotation Zrotation
				JOINT LeftFoot
				{
					OFFSET -0.708756 -10.717838 -2.184338
					CHANNELS 3 Xrotation Yrotation Zrotation
					JOINT LeftToeBase
					{
						OFFSET 0.108149 -7.191104 7.560241
						CHANNELS 3 Xrotation Yrotation Zrotation
						JOINT LeftToe_End
						{
							OFFSET 0.070230 0.081724 4.490308
							CHANNELS 3 Xrotation Yrotation Zrotation
							End Site
							{
								OFFSET 0 0 0
							}
						}
					}
				}
			}
		}
	}
	JOINT RightUpLeg_virtual
	{
		OFFSET 0.000000 0.000000 0.000000
		CHANNELS 3 Xrotation Yrotation Zrotation
		JOINT RightUpLeg
		{
			OFFSET -10.205400 -3.823500 0.005500
			CHANNELS 3 Xrotation Yrotation Zrotation
			JOINT RightLeg
			{
				OFFSET -0.708756 -12.982134 0.610632
				CHANNELS 3 Xrotation Yrotation Zrotation
				JOINT RightFoot
				{
					OFFSET 0.708754 -10.717769 -1.945823
					CHANNELS 3 Xrotation Yrotation Zrotation
					JOINT RightToeBase
					{
						OFFSET -0.108140 -7.191069 7.372968
						CHANNELS 3 Xrotation Yrotation Zrotation
						JOINT RightToe_End
						{
							OFFSET -0.070227 0.081735 4.479403
							CHANNELS 3 Xrotation Yrotation Zrotation
							End Site
							{
								OFFSET 0 0 0
							}
						}
					}
				}
			}
		}
	}
	JOINT Spine_virtual
	{
		OFFSET 0.000000 0.000000 0.000000
		CHANNELS 3 Xrotation Yrotation Zrotation
		JOINT Spine
		{
			OFFSET 0.000000 6.876099 0.125700
			CHANNELS 3 Xrotation Yrotation Zrotation
			JOINT Spine1
			{
				OFFSET 0.000000 5.730043 0.104720
				CHANNELS 3 Xrotation Yrotation Zrotation
				JOINT Spine1_split
				{
					OFFSET 0.000000 5.730043 0.104720
					CHANNELS 3 Xrotation Yrotation Zrotation
					JOINT Spine2
					{
						OFFSET 0.000000 5.730043 0.104720
						CHANNELS 3 Xrotation Yrotation Zrotation
						JOINT Neck_virtual
						{
							OFFSET 0.000000 0.000000 0.000000
							CHANNELS 3 Xrotation Yrotation Zrotation
							JOINT Neck
							{
								OFFSET 0.000000 10.314075 0.188496
								CHANNELS 3 Xrotation Yrotation Zrotation
								JOINT Head
								{
									OFFSET 0.000000 7.643700 -2.377400
									CHANNELS 3 Xrotation Yrotation Zrotation
									JOINT HeadTop_End
									{
										OFFSET 0.000000 43.788605 -13.619600
										CHANNELS 3 Xrotation Yrotation Zrotation
										End Site
										{
											OFFSET 0 0 0
										}
									}
								}
							}
						}
						JOINT LeftShoulder_virtual
						{
							OFFSET 0.000000 0.000000 0.000000
							CHANNELS 3 Xrotation Yrotation Zrotation
							JOINT LeftShoulder
							{
								OFFSET 2.196100 4.412489 0.087492
								CHANNELS 3 Xrotation Yrotation Zrotation
								JOINT LeftShoulder_split
								{
									OFFSET 2.196100 4.412489 0.087492
									CHANNELS 3 Xrotation Yrotation Zrotation
									JOINT LeftArm
									{
										OFFSET 8.771219 -2.981674 -0.026999
										CHANNELS 3 Xrotation Yrotation Zrotation
										JOINT LeftForeArm
										{
											OFFSET 8.512804 0.000000 -0.000000
											CHANNELS 3 Xrotation Yrotation Zrotation
											JOINT LeftHand
											{
												OFFSET 18.484802 0.000000 -0.000000
												CHANNELS 3 Xrotation Yrotation Zrotation
												End Site
												{
													OFFSET 0 0 0
												}
											}
										}
									}
								}
							}
						}
						JOINT RightShoulder_virtual
						{
							OFFSET 0.000000 0.000000 0.000000
							CHANNELS 3 Xrotation Yrotation Zrotation
							JOINT RightShoulder
							{
								OFFSET -2.196100 4.412496 0.070690
								CHANNELS 3 Xrotation Yrotation Zrotation
								JOINT RightShoulder_split
								{
									OFFSET -2.196100 4.412496 0.070690
									CHANNELS 3 Xrotation Yrotation Zrotation
									JOINT RightArm
									{
										OFFSET -8.771282 -2.981682 -0.094208
										CHANNELS 3 Xrotation Yrotation Zrotation
										JOINT RightForeArm
										{
											OFFSET -8.494598 0.000000 0.000000
											CHANNELS 3 Xrotation Yrotation Zrotation
											JOINT RightHand
											{
												OFFSET -18.483803 0.000000 0.000001
												CHANNELS 3 Xrotation Yrotation Zrotation
												End Site
												{
													OFFSET 0 0 0
												}
											}
										}
									}
								}
							}
						}
					}
				}
			}
		}
	}
}
MOTION
Frames: 8
Frame Time: 0.03333333
-1.184389 32.180092 6.118222 0.000000 0.000000 0.000000 175.291232 -62.481334 176.834404 -3.175594 14.818970 17.087441 25.764261 16.848424 0.907982 -17.513235 6.746464 -30.380036 -5.270833 1.548884 0.010245 0.000000 0.000000 0.000000 174.948575 -61.308297 176.170796 -11.202503 -18.814594 -18.640414 17.073822 -12.253718 2.090722 -4.880151 -1.529730 11.531069 -0.338566 -9.533655 5.153456 0.000000 0.000000 0.000000 174.286087 -65.073616 174.446160 9.867382 -0.599104 -0.198588 -0.123820 -1.194406 2.059211 0.874849 -0.950274 0.051140 0.000000 0.000000 0.000000 -2.210509 -1.158905 2.496856 -4.291899 21.951417 4.386319 2.269986 23.637041 -7.956792 0.000000 0.000000 0.000000 -2.166650 -0.685808 2.120506 0.912276 1.900869 -8.062986 1.879866 -3.549881 -1.674246 -1.030992 -7.322905 -58.937682 4.891300 -16.248482 -6.100933 0.000000 0.000000 0.000000 -1.772563 -1.101896 1.732082 1.823164 -2.180930 18.933353 -2.961571 -1.634768 -0.516590 16.418334 27.999459 45.304600 16.305195 26.288312 -6.129602 0.000000 0.000000 0.000000 
-1.114524 32.040428 4.995517 0.000000 0.000000 0.000000 175.972338 -58.998778 177.585970 -1.818645 15.850340 18.993872 27.150159 19.141675 0.906910 -15.150051 7.271637 -32.523380 -5.766753 1.783946 0.047221 0.000000 0.000000 0.000000 175.659707 -57.804075 176.923797 -12.427317 -19.199995 -16.542447 18.222436 -11.359006 2.321726 -4.258772 -0.392906 10.497411 -1.186834 -9.638629 5.061090 0.000000 0.000000 0.000000 175.524701 -61.217579 175.791762 10.002840 -1.137309 -0.335797 -0.032791 -1.555779 2.606081 0.957365 -0.607748 -0.050744 0.000000 0.000000 0.000000 -2.233813 -1.516433 2.993996 -4.405978 19.359311 3.179850 1.622249 19.761030 -6.175163 0.000000 0.000000 0.000000 -2.036875 -1.030363 2.659560 0.971238 2.425793 -8.965282 1.589275 -3.629830 -1.482914 0.243847 -7.986816 -59.236223 4.199185 -16.260382 -6.029138 0.000000 0.000000 0.000000 -1.616448 -1.418183 2.243476 1.832826 -2.461012 18.320360 -2.799551 -1.475448 -0.453341 15.589709 28.993784 45.551512 16.006909 26.111694 -6.365408 0.000000 0.000000 0.000000 
-1.010756 31.860516 3.776325 0.000000 0.000000 0.000000 176.668608 -55.481500 178.208938 -1.451484 16.316634 21.548058 30.508829 21.055479 0.783414 -12.216757 7.175013 -33.489350 -5.460900 2.210313 -0.927378 0.000000 0.000000 0.000000 176.424292 -54.404489 177.543254 -13.002158 -19.511014 -13.683518 19.435988 -9.899678 2.372545 -4.846789 0.590977 9.172702 -1.812742 -9.684659 4.647101 0.000000 0.000000 0.000000 176.711460 -57.350530 176.901107 10.295381 -1.734694 -0.434803 0.001715 -1.909805 3.043831 0.955248 -0.186903 -0.240118 0.000000 0.000000 0.000000 -2.286924 -1.884029 3.372332 -4.391375 16.413457 2.272776 1.112889 15.687331 -4.579206 0.000000 0.000000 0.000000 -1.947305 -1.384298 3.089114 1.041784 2.849053 -9.609381 1.419460 -3.723781 -1.184915 1.824732 -8.620391 -59.633535 3.607008 -16.632646 -6.048638 0.000000 0.000000 0.000000 -1.531861 -1.738577 2.665440 1.862551 -2.624760 17.908169 -2.805721 -1.243753 -0.390113 14.859693 29.922868 45.746807 15.588995 26.007002 -6.325177 0.000000 0.000000 0.000000 
-0.888830 31.663914 2.477257 0.000000 0.000000 0.000000 177.355520 -52.012857 178.727869 -2.498776 15.753894 24.601262 35.764865 22.069219 0.670241 -8.639987 6.235812 -33.659681 -4.079773 2.775156 -3.067417 0.000000 0.000000 0.000000 177.270252 -51.134208 178.122509 -12.817127 -19.690363 -10.285197 20.659625 -8.154777 2.203522 -6.846202 1.234038 7.389413 -1.759103 -9.655833 3.935453 0.000000 0.000000 0.000000 177.783882 -53.551695 177.761124 10.705942 -2.274630 -0.478700 -0.079253 -2.186375 3.243198 0.889050 0.346423 -0.289601 0.000000 0.000000 0.000000 -2.357051 -2.175993 3.499647 -4.200568 13.237599 1.783823 0.742056 11.604550 -3.268029 0.000000 0.000000 0.000000 -1.937641 -1.668356 3.286557 1.097674 3.155824 -9.879274 1.279758 -3.688415 -0.890920 3.459288 -8.940059 -60.083781 3.111421 -17.309484 -6.194531 0.000000 0.000000 0.000000 -1.537306 -1.999718 2.866147 1.880620 -2.672206 17.733435 -2.815653 -1.026190 -0.328028 14.235061 30.635079 45.866568 15.155220 26.019614 -6.100987 0.000000 0.000000 0.000000 
-0.766933 31.488224 1.134716 0.000000 0.000000 0.000000 178.116936 -48.594877 179.249203 -4.760223 14.000036 27.481223 42.049885 22.101165 0.728379 -4.287229 4.404945 -33.121623 -2.501478 3.348061 -5.958498 0.000000 0.000000 0.000000 178.139434 -47.840192 178.675372 -12.110331 -19.587468 -6.660558 22.058837 -6.239232 1.888473 -9.728962 1.551003 5.453566 -1.336702 -9.574166 2.931900 0.000000 0.000000 0.000000 178.716585 -49.873304 178.330365 11.193801 -2.656474 -0.435719 -0.292781 -2.353553 3.153649 0.771296 0.755280 -0.262570 0.000000 0.000000 0.000000 -2.447758 -2.333517 3.341624 -3.806407 10.003911 1.745804 0.489256 7.731532 -2.300640 0.000000 0.000000 0.000000 -1.997255 -1.827683 3.204166 1.134146 3.321238 -9.798123 1.081114 -3.448480 -0.665423 4.875284 -8.712779 -60.611720 2.743353 -18.097431 -6.492899 0.000000 0.000000 0.000000 -1.627676 -2.145117 2.789154 1.846815 -2.667346 17.734999 -2.716473 -0.820740 -0.334356 13.698265 31.115729 45.868654 14.793204 26.203252 -5.831185 0.000000 0.000000 0.000000 
-0.691370 31.379765 -0.209570 0.000000 0.000000 0.000000 178.890454 -45.183197 179.658509 -7.459413 11.479446 29.274208 47.922868 21.668362 1.078628 -0.322609 2.273634 -31.005384 -2.144762 3.843897 -8.798201 0.000000 0.000000 0.000000 178.944891 -44.606617 179.079104 -11.092493 -19.036618 -3.071311 23.597542 -4.209797 1.491850 -12.755472 1.600513 3.812574 -1.000552 -9.482994 1.740125 0.000000 0.000000 0.000000 179.489845 -46.313559 178.692201 11.714069 -2.784673 -0.286247 -0.578014 -2.377649 2.812486 0.655754 0.960308 -0.196051 0.000000 0.000000 0.000000 -2.557574 -2.324460 2.933207 -3.180875 6.817173 2.088909 0.351262 4.170211 -1.709535 0.000000 0.000000 0.000000 -2.101487 -1.825991 2.865937 1.150536 3.321953 -9.494683 0.891477 -2.998113 -0.541651 6.048864 -7.824683 -61.214819 2.557245 -18.625011 -6.916037 0.000000 0.000000 0.000000 -1.762310 -2.134623 2.464261 1.765501 -2.687786 17.844197 -2.456186 -0.685485 -0.468831 13.278250 31.558001 45.608633 14.546266 26.422338 -5.582427 0.000000 0.000000 0.000000 
-0.657874 31.360764 -1.538055 0.000000 0.000000 0.000000 179.593991 -41.663792 179.894082 -9.978870 8.808866 29.287926 52.713020 21.104438 1.578864 2.065998 0.593019 -27.151814 -3.615251 4.332716 -10.886306 0.000000 0.000000 0.000000 179.584197 -41.354360 179.228644 -9.881850 -17.877368 0.342705 25.024109 -2.001852 1.169807 -15.459220 1.433768 2.791654 -1.203609 -9.368589 0.554553 0.000000 0.000000 0.000000 -179.871802 -42.805779 178.907926 12.229402 -2.633007 -0.034844 -0.869596 -2.240817 2.314972 0.564789 1.028134 -0.055920 0.000000 0.000000 0.000000 -2.667859 -2.144986 2.363465 -2.357755 3.802309 2.646432 0.319571 0.988763 -1.443419 0.000000 0.000000 0.000000 -2.196661 -1.673062 2.372559 1.145224 3.194745 -9.137665 0.702299 -2.412508 -0.403236 7.108230 -6.331071 -61.916621 2.585938 -18.602123 -7.416228 0.000000 0.000000 0.000000 -1.904826 -1.962188 1.995562 1.659192 -2.784705 17.937545 -2.169787 -0.780071 -0.631812 13.081440 32.178739 44.959567 14.432492 26.492745 -5.385276 0.000000 0.000000 0.000000 
-0.696664 31.428646 -2.828379 0.000000 0.000000 0.000000 -179.856585 -38.038092 179.895066 -12.380965 6.740262 27.621084 56.476806 20.527324 1.760914 2.100681 -0.289196 -21.850725 -5.942053 4.762318 -12.051292 0.000000 0.000000 0.000000 179.986276 -38.061366 179.069214 -8.425495 -16.006658 3.448119 26.009731 0.397766 0.975699 -17.965356 1.190312 2.268393 -1.944135 -9.170630 -0.394306 0.000000 0.000000 0.000000 -179.374947 -39.239006 179.022250 12.665670 -2.257551 0.277143 -1.094515 -1.958071 1.777198 0.518725 0.930907 0.008147 0.000000 0.000000 0.000000 -2.764931 -1.829431 1.757925 -1.434767 1.062484 3.244715 0.404488 -1.780401 -1.448792 0.000000 0.000000 0.000000 -2.249221 -1.390685 1.839874 1.119588 2.983452 -8.873341 0.674590 -1.875751 -0.244511 8.136349 -4.505529 -62.715678 2.886214 -18.047878 -7.904394 0.000000 0.000000 0.000000 -2.026998 -1.650450 1.494487 1.559182 -3.052704 17.976368 -1.956861 -0.978760 -0.733016 13.193352 32.971939 43.980691 14.398739 26.275022 -5.218704 0.000000 0.000000 0.000000 
